<svg id="Layer_1" data-name="Layer 1" xmlns="http://www.w3.org/2000/svg" viewBox="0 0 207.95 110.82" style=""><defs><style>.cls-1{fill:none;stroke:#000;stroke-miterlimit:10;stroke-width:4px;}</style></defs><title>Signature</title><path class="cls-1 PNpRlIew_0" d="M47,60s19,55,13,80-14-7-14-7S42,81,76,56s38-7,38-7,6,14-27,52l19,14s26,27-33,18-34-15-34-15,7.5-3.5,87.5,9.5c0,0,20,2,29-1,6.81-2.27,10.18-2.82,11.42-3a2.91,2.91,0,0,1,1,.07c1.77.44,9,2,23.56,2.89,17,1,48-2,48-2" transform="translate(-31.74 -40.73)"></path><style>.PNpRlIew_0{stroke-dasharray:633 635;stroke-dashoffset:634;animation:PNpRlIew_draw 2000ms linear 0ms forwards;}@keyframes PNpRlIew_draw{100%{stroke-dashoffset:0;}}@keyframes PNpRlIew_fade{0%{stroke-opacity:1;}94.44444444444444%{stroke-opacity:1;}100%{stroke-opacity:0;}}</style></svg>